/* XPM */
static char * comicseer_xpm[] = {
"32 32 362 2",
"  	c None",
". 	c #888787",
"+ 	c #777878",
"@ 	c #9F9D9F",
"# 	c #B3B4B3",
"$ 	c #6EB56A",
"% 	c #49BA42",
"& 	c #41B839",
"* 	c #3EB537",
"= 	c #3DB435",
"- 	c #3AB132",
"; 	c #38AF30",
"> 	c #37AE30",
", 	c #31A82B",
"' 	c #30A82A",
") 	c #2DA427",
"! 	c #2FA729",
"~ 	c #30A22B",
"{ 	c #627C67",
"] 	c #75787B",
"^ 	c #717477",
"/ 	c #74787B",
"( 	c #7A7E81",
"_ 	c #7F8386",
": 	c #888B8E",
"< 	c #8C9093",
"[ 	c #929699",
"} 	c #95989C",
"| 	c #6F7274",
"1 	c #84878A",
"2 	c #303133",
"3 	c #838383",
"4 	c #0A0A0A",
"5 	c #5B655B",
"6 	c #50FE44",
"7 	c #16FE06",
"8 	c #10FF00",
"9 	c #0FFF00",
"0 	c #16FB07",
"a 	c #77A77B",
"b 	c #979B9F",
"c 	c #999DA1",
"d 	c #9EA2A6",
"e 	c #A2A6AA",
"f 	c #ADB2B6",
"g 	c #BABFC3",
"h 	c #BFC4C8",
"i 	c #B9BDC1",
"j 	c #000000",
"k 	c #5A5D5E",
"l 	c #3B3C3D",
"m 	c #ABABAB",
"n 	c #9A979A",
"o 	c #4BEF3F",
"p 	c #08FF00",
"q 	c #10FE00",
"r 	c #0FEC01",
"s 	c #15E607",
"t 	c #14E506",
"u 	c #14E507",
"v 	c #13E405",
"w 	c #14E406",
"x 	c #1BE20E",
"y 	c #77A07A",
"z 	c #909498",
"A 	c #9EA3A7",
"B 	c #A1A6AA",
"C 	c #B2B7BB",
"D 	c #A9ADB1",
"E 	c #B4B9BC",
"F 	c #ABAFB3",
"G 	c #AFB4B7",
"H 	c #B3B7BB",
"I 	c #727578",
"J 	c #93979B",
"K 	c #37393B",
"L 	c #42BF39",
"M 	c #0BFF00",
"N 	c #0ED800",
"O 	c #1D941E",
"P 	c #16A418",
"Q 	c #1C9A1D",
"R 	c #4C4E50",
"S 	c #A8ADB1",
"T 	c #AEB3B7",
"U 	c #93979A",
"V 	c #414244",
"W 	c #3D3F40",
"X 	c #343537",
"Y 	c #3E4042",
"Z 	c #20F912",
"` 	c #7DA07A",
" .	c #00FF03",
"..	c #A1A5A9",
"+.	c #1A1B1C",
"@.	c #0EFF00",
"#.	c #49E53F",
"$.	c #C3B7C3",
"%.	c #676868",
"&.	c #00FF04",
"*.	c #04B206",
"=.	c #7B7A82",
"-.	c #B0B4B8",
";.	c #B4B8BC",
">.	c #525556",
",.	c #499844",
"'.	c #ACA7AF",
").	c #ACABAE",
"!.	c #4F5154",
"~.	c #3DB142",
"{.	c #A8A8B1",
"].	c #B7BCC0",
"^.	c #909396",
"/.	c #7F7B82",
"(.	c #9D9EA3",
"_.	c #83878B",
":.	c #00FE04",
"<.	c #01D004",
"[.	c #61D367",
"}.	c #B9B8C1",
"|.	c #C3C8CC",
"1.	c #343637",
"2.	c #2D2830",
"3.	c #8B9094",
"4.	c #909599",
"5.	c #65686A",
"6.	c #10BB15",
"7.	c #84D08C",
"8.	c #C4C5CD",
"9.	c #5C5E60",
"0.	c #3C3D3F",
"a.	c #94999D",
"b.	c #969A9E",
"c.	c #575A5C",
"d.	c #56A25D",
"e.	c #8ACD92",
"f.	c #C6CACF",
"g.	c #7F8285",
"h.	c #4E5052",
"i.	c #9BA0A4",
"j.	c #3D4041",
"k.	c #414344",
"l.	c #BBC0C4",
"m.	c #A4A8AC",
"n.	c #7B7F82",
"o.	c #979CA0",
"p.	c #8C9094",
"q.	c #819388",
"r.	c #C3C6CC",
"s.	c #B3C7BC",
"t.	c #75827A",
"u.	c #38393B",
"v.	c #A0A6AA",
"w.	c #A0A4A8",
"x.	c #7E7C84",
"y.	c #518F55",
"z.	c #42F049",
"A.	c #CAC5D2",
"B.	c #32EE37",
"C.	c #4E5053",
"D.	c #ACB1B5",
"E.	c #B4B3BD",
"F.	c #85CF8D",
"G.	c #1AF71F",
"H.	c #A0BCA8",
"I.	c #00FF02",
"J.	c #7E8184",
"K.	c #C6C5CE",
"L.	c #88D390",
"M.	c #2FF035",
"N.	c #27902B",
"O.	c #C9C9D2",
"P.	c #87D18F",
"Q.	c #33E738",
"R.	c #06C70A",
"S.	c #545657",
"T.	c #C9CDD1",
"U.	c #C6C6D0",
"V.	c #8AD491",
"W.	c #40EB46",
"X.	c #20DE24",
"Y.	c #3D3E3F",
"Z.	c #BEC2C7",
"`.	c #BDC2C6",
" +	c #BDBEC6",
".+	c #649569",
"++	c #76DD7A",
"@+	c #64DA69",
"#+	c #3C783F",
"$+	c #929698",
"%+	c #BFC3C7",
"&+	c #76797B",
"*+	c #908E96",
"=+	c #BDB9C4",
"-+	c #AAA8B0",
";+	c #39333A",
">+	c #C1C5CA",
",+	c #A2A6A9",
"'+	c #444747",
")+	c #ADAFB2",
"!+	c #ABABB0",
"~+	c #8C8D91",
"{+	c #404242",
"]+	c #BDC1C5",
"^+	c #BFC5C9",
"/+	c #5D6062",
"(+	c #4ABA4E",
"_+	c #7EC984",
":+	c #9BAFA0",
"<+	c #5E5C5F",
"[+	c #AEB2B5",
"}+	c #C4C9CD",
"|+	c #76787C",
"1+	c #00EB00",
"2+	c #6C8870",
"3+	c #ABB3AC",
"4+	c #A4A3A4",
"5+	c #373737",
"6+	c #807F86",
"7+	c #C0C5C9",
"8+	c #9C9FA3",
"9+	c #141014",
"0+	c #979797",
"a+	c #9F9F9F",
"b+	c #9A9A9A",
"c+	c #41A13E",
"d+	c #B9B7C1",
"e+	c #BFC3C8",
"f+	c #B3B8BC",
"g+	c #55585A",
"h+	c #4C4C4C",
"i+	c #9B9B9B",
"j+	c #9D9D9D",
"k+	c #6D6D6D",
"l+	c #3FEB37",
"m+	c #C4BFCE",
"n+	c #C0C5C8",
"o+	c #84868A",
"p+	c #00FE03",
"q+	c #6B6B6B",
"r+	c #939393",
"s+	c #3F3F3F",
"t+	c #0EFB00",
"u+	c #1AFB0C",
"v+	c #92CD95",
"w+	c #ADB0B5",
"x+	c #00FD04",
"y+	c #8A8A8A",
"z+	c #8F8F8F",
"A+	c #8D8D8D",
"B+	c #1E1E1E",
"C+	c #54B351",
"D+	c #0AFF00",
"E+	c #2EF821",
"F+	c #33862F",
"G+	c #227C1D",
"H+	c #237C1E",
"I+	c #1F771A",
"J+	c #1B7315",
"K+	c #1A7714",
"L+	c #138E0F",
"M+	c #158811",
"N+	c #148F11",
"O+	c #444444",
"P+	c #878787",
"Q+	c #7A7A7A",
"R+	c #3D3D3D",
"S+	c #262626",
"T+	c #2C2C2C",
"U+	c #85888C",
"V+	c #C4C6CE",
"W+	c #61F25C",
"X+	c #06FF00",
"Y+	c #0EF800",
"Z+	c #14EF06",
"`+	c #13EF05",
" @	c #13EE04",
".@	c #12ED03",
"+@	c #11EC03",
"@@	c #11EC02",
"#@	c #16E609",
"$@	c #6D966B",
"%@	c #858585",
"&@	c #868686",
"*@	c #828282",
"=@	c #848484",
"-@	c #727272",
";@	c #707070",
">@	c #676767",
",@	c #696969",
"'@	c #686868",
")@	c #5C5C5C",
"!@	c #656565",
"~@	c #3E3E3E",
"{@	c #919598",
"]@	c #1D1E1E",
"^@	c #212622",
"/@	c #58EB52",
"(@	c #19FB0A",
"_@	c #13FD04",
":@	c #12FD03",
"<@	c #12FD02",
"[@	c #12FC02",
"}@	c #1AF90B",
"|@	c #79A477",
"1@	c #7F7F7F",
"2@	c #7B7B7B",
"3@	c #6C6C6C",
"4@	c #3C3C3C",
"5@	c #232323",
"6@	c #333434",
"7@	c #8E9194",
"8@	c #76787B",
"9@	c #787A7D",
"0@	c #C6C3D0",
"a@	c #9CCAA0",
"b@	c #80D781",
"c@	c #7BD67A",
"d@	c #7BD478",
"e@	c #78D175",
"f@	c #74CE70",
"g@	c #75CE6F",
"h@	c #6FC969",
"i@	c #70C96A",
"j@	c #6DC767",
"k@	c #6BC465",
"l@	c #69C263",
"m@	c #62BB5C",
"n@	c #67BC62",
"o@	c #849483",
"p@	c #898989",
"q@	c #7D7D7D",
"r@	c #767676",
"s@	c #6F6F6F",
"t@	c #6A6A6A",
"u@	c #454545",
"v@	c #424242",
"w@	c #3B3B3B",
"x@	c #4F5152",
"y@	c #686B6D",
"z@	c #6A6D6F",
"A@	c #66686B",
"B@	c #636568",
"C@	c #65656A",
"D@	c #626066",
"E@	c #646268",
"F@	c #5E5C61",
"G@	c #5E5C5E",
"H@	c #5A585A",
"I@	c #535153",
"J@	c #575557",
"K@	c #545254",
"L@	c #504D50",
"M@	c #4E4C4F",
"N@	c #484748",
"O@	c #4B4B4B",
"P@	c #434343",
"Q@	c #343434",
"R@	c #3A3A3A",
"S@	c #383838",
"T@	c #3B3C3E",
"U@	c #232425",
"                                                                ",
"  . + @ # $ % & & * = - ; > , ' ) ! ~ { ] ^ / ( _ : < [ } | 1 2 ",
"  3 4 5 6 7 8 9 9 9 9 9 9 9 9 9 9 9 0 a b c d e f g h h i j k l ",
"  m n o p q 9 9 r s s t u t v t w u x y z A B C D E F G H I J K ",
"    L M q 8 8 N               O P Q     R S T U V       W X Y   ",
"    9 q 8 q Z `                .   .    ..T C +.        j       ",
"    8 8 8 @.#.$.%.            &.    *.=.-.;.>.          j       ",
"    8 8 8 @.,.'.).!.          &.  &.~.{.].^.                j   ",
"    8 8 8 8   /.(._.          :.  <.[.}.|.1.            j j     ",
"    8 8 8 q   2.3.4.5.         .  6.7.8.9.                      ",
"    8 8 8 8     0.a.b.c.        d.e.f.g.                        ",
"    8 8 8 8       h.J i.j.    k.S l.m.                  j       ",
"    8 8 8 8         n.o.p.    q.r.s.t.                  j       ",
"    8 8 8 8         u.v.w.x.y.z.A.B.                    j       ",
"    8 8 8 8           C.D.E.F.G.H.I.                    j       ",
"    8 8 8 8             J.K.L.M.N. .                            ",
"    8 8 8 8             J.O.P.Q.R.&.                            ",
"    8 8 8 8           S.T.U.V.W.X.                      j       ",
"    8 8 8 8         Y.Z.`. +.+++@+#+                    j       ",
"    8 8 8 8         $+h %+&+  *+=+-+;+                  j       ",
"    8 8 8 8       9.|.>+,+    '+)+!+~+                  j       ",
"    8 8 8 8     {+l.]+^+/+      (+_+:+<+                        ",
"    8 8 8 8     [+>+}+|+        1+2+3+4+5+                      ",
"    8 8 8 8   6+7+g 8+           .9+0+a+b+              j j     ",
"    8 8 8 9 c+d+e+f+g+          :.  h+i+j+k+            j   j   ",
"    8 8 8 9 l+m+n+o+            p+    q+i+r+s+          j   j   ",
"    t+8 q q u+v+w+              x+      y+z+A+B+        j   j   ",
"    C+D+q 8 @.E+F+G+H+I+I+J+K+L+M+N+    O+A+P+Q+R+      S+  T+  ",
"  U+V+W+X+9 q @.Y+Z+`+ @ @.@.@+@@@@@#@$@%@&@*@=@-@;@>@,@'@)@!@~@",
"  {@]@^@/@(@_@:@:@:@:@<@:@<@<@<@[@<@}@|@A+%@1@1@2@Q+;@3@'@4@5@6@",
"  7@8@9@0@a@b@c@d@e@f@g@h@i@j@k@l@m@n@o@p@%@q@1@r@-@s@q+t@u@v@w@",
"  x@y@z@A@B@C@D@E@F@<+G@H@H@I@J@K@L@M@N@O@P@P@P@~@~@Q@R@S@4@T@U@"};
